<svg width="32" height="32" viewBox="0 0 32 32" fill="none" xmlns="http://www.w3.org/2000/svg">
<g clip-path="url(#clip0_2313_9470)">
<path d="M28.25 0H3.75C1.67893 0 0 1.67893 0 3.75V28.25C0 30.3211 1.67893 32 3.75 32H28.25C30.3211 32 32 30.3211 32 28.25V3.75C32 1.67893 30.3211 0 28.25 0Z" fill="white"/>
<mask id="mask0_2313_9470" style="mask-type:luminance" maskUnits="userSpaceOnUse" x="7" y="8" width="18" height="16">
<path d="M24.8779 8.5H7V23.5H24.8779V8.5Z" fill="white"/>
</mask>
<g mask="url(#mask0_2313_9470)">
<path d="M8.61459 14.2957H7.59766L12.1199 8.75045C12.2498 8.59258 12.4418 8.5 12.6446 8.5H20.234L18.2596 10.7676H13.5372L10.6756 14.2957H8.61459ZM20.1854 11.9763L20.9237 13.5716C21.1374 14.0344 21.7432 14.1432 22.103 13.7866L22.7656 13.1305C22.9901 12.9074 23.0524 12.567 22.9199 12.2785L21.8785 10.0299L21.0481 10.9854L20.1854 11.9763ZM24.8022 16.3265L24.4345 15.5398C24.2046 15.0498 23.55 14.96 23.2011 15.371L19.2116 20.0641L20.2962 22.3781L24.6995 17.1186C24.8835 16.8981 24.924 16.5879 24.8022 16.3265ZM16.9586 21.0877L12.193 21.115L11.1192 19.1086C10.9894 18.8691 10.7405 18.7166 10.4673 18.7166H9.72088C9.18262 18.7166 8.82022 19.2748 9.04196 19.7703L10.4403 22.9252C10.5945 23.2765 10.9434 23.4998 11.3247 23.4969L18.0567 23.437H18.0621L16.9586 21.0877Z" fill="#2E3B51"/>
<path d="M7.07792 15.6825L7.32129 16.2106C7.44846 16.4829 7.71889 16.6571 8.01641 16.6571L14.881 16.6544L18.0645 23.441L19.0327 23.4329C19.2789 23.4301 19.5141 23.3212 19.671 23.1306L20.2985 22.382L17.0907 15.5382L21.8807 10.0338L21.3831 8.95581C21.256 8.68086 20.9801 8.50391 20.6771 8.50391H20.239L15.1892 14.2969H7.59719L7.18877 14.7977C6.98595 15.0482 6.94265 15.3912 7.07792 15.6825Z" fill="#5C5F6E"/>
<path d="M20.6717 8.77223C20.8691 8.77223 21.0504 8.88925 21.1316 9.06894L21.5562 9.98633L20.8421 10.8085L16.7661 15.488L16.8419 15.6486L19.9766 22.3345L19.46 22.9498C19.3519 23.0805 19.1922 23.154 19.0246 23.1567L18.2294 23.1649L15.1244 16.5361L15.0514 16.3809L8.01916 16.3836C7.82711 16.3836 7.64862 16.2694 7.56745 16.0951L7.32405 15.567C7.23479 15.371 7.2618 15.1369 7.39974 14.9709L7.72702 14.5679H15.311L15.3921 14.4754L20.358 8.77223H20.6717ZM20.6717 8.5H20.2336L15.1892 14.2957H7.59719L7.18877 14.7966C6.98595 15.0444 6.94265 15.39 7.07792 15.6814L7.32129 16.2095C7.44846 16.4817 7.71889 16.6559 8.01641 16.6559L14.881 16.6532L18.0645 23.4398L19.0327 23.4316C19.2789 23.4289 19.5141 23.32 19.671 23.1295L20.2985 22.3809L17.0907 15.537L21.8807 10.0326L21.3831 8.9546C21.2506 8.67695 20.9746 8.5 20.6717 8.5Z" fill="#5C5F6E"/>
</g>
</g>
<defs>
<clipPath id="clip0_2313_9470">
<rect width="32" height="32" fill="white"/>
</clipPath>
</defs>
</svg>
