<svg width="204" height="34" viewBox="0 0 204 34" fill="none" xmlns="http://www.w3.org/2000/svg">
<path d="M27.0794 0V5.71011H16.6853V33.32H10.4853V5.71011H0V0H27.0794ZM43.5482 9.74667H49.4747V33.32H43.5482V30.6434C42.0894 32.8799 39.81 33.9981 36.71 33.9981C33.9747 33.9981 31.8168 33.1821 30.2364 31.5501C28.6864 29.8879 27.9114 27.6061 27.9114 24.7048V9.74667H33.8379V23.9813C33.8379 27.2756 35.2815 28.9227 38.1688 28.9227C39.9012 28.9227 41.2232 28.3636 42.135 27.2453C43.0771 26.0969 43.5482 24.5404 43.5482 22.576V9.74667ZM68.5154 14.7333H61.8595V25.2488C61.8595 26.5483 62.1027 27.4399 62.5889 27.9234C63.0752 28.3768 63.911 28.6034 65.0963 28.6034C66.0384 28.6034 67.087 28.4826 68.2419 28.2408V33.3634C67.2997 33.7261 65.9777 33.9074 64.2757 33.9074C61.51 33.9074 59.4281 33.2879 58.0301 32.0488C56.6321 30.7794 55.933 28.7848 55.933 26.0648V14.7314H51.6477V9.74667H55.933V5.21333L61.8595 0.770667V9.74667H68.5154V14.7333ZM73.5624 12.4194C76.0242 10.0621 79.1242 8.88344 82.8624 8.88344C86.6007 8.88344 89.6855 10.0621 92.1168 12.4194C94.5786 14.7768 95.8095 17.7839 95.8095 21.4408C95.8095 25.0977 94.5786 28.1048 92.1168 30.4621C89.6855 32.8194 86.6007 33.9981 82.8624 33.9981C79.1242 33.9981 76.0242 32.8194 73.5624 30.4621C71.131 28.1048 69.9153 25.0977 69.9153 21.4408C69.9153 17.7839 71.131 14.7768 73.5624 12.4194ZM87.7404 16.2274C86.4639 14.9279 84.8379 14.2781 82.8624 14.2781C80.8869 14.2781 79.2609 14.9279 77.9845 16.2274C76.708 17.527 76.0698 19.2648 76.0698 21.4408C76.0698 23.6168 76.708 25.3546 77.9845 26.6541C79.2609 27.9537 80.8869 28.6034 82.8624 28.6034C84.8379 28.6034 86.4639 27.9537 87.7404 26.6541C89.0168 25.3546 89.6551 23.6168 89.6551 21.4408C89.6551 19.2648 89.0168 17.527 87.7404 16.2274ZM110.705 9.15544C111.646 9.15544 112.436 9.27633 113.074 9.51811V15.2754C112.083 14.9794 111.054 14.8268 110.02 14.8221C108.287 14.8221 106.92 15.4417 105.917 16.6808C104.914 17.9199 104.412 19.6728 104.412 21.9394V33.32H98.4859V9.74667H104.412V13.2827C105.81 10.5324 107.907 9.15733 110.704 9.15733L110.705 9.15544ZM129.135 8.88344C132.63 8.88344 135.487 10.0923 137.705 12.5101C139.954 14.8977 141.079 17.9048 141.079 21.5314C141.079 25.1279 139.954 28.1048 137.705 30.4621C135.456 32.8194 132.584 33.9981 129.089 33.9981C125.837 33.9981 123.208 32.8799 121.202 30.6434V33.32H115.321V0H121.248V12.24C123.254 10.0036 125.883 8.88344 129.135 8.88344ZM127.949 28.6488C129.986 28.6488 131.657 27.999 132.964 26.6994C134.271 25.3697 134.924 23.647 134.924 21.5314C134.924 19.3857 134.271 17.6328 132.964 16.2728C131.657 14.9128 129.986 14.2328 127.949 14.2328C126.004 14.2328 124.363 14.9128 123.026 16.2728C121.719 17.6026 121.065 19.3554 121.065 21.5314C121.065 23.647 121.719 25.3697 123.026 26.6994C124.363 27.999 126.004 28.6488 127.949 28.6488ZM143.994 0H149.921V33.32H143.994V0ZM156.465 12.4213C158.926 10.064 162.026 8.88533 165.765 8.88533C169.503 8.88533 172.588 10.064 175.019 12.4213C177.481 14.7787 178.712 17.7858 178.712 21.4427C178.712 25.0996 177.481 28.1067 175.019 30.464C172.588 32.8213 169.503 34 165.765 34C162.026 34 158.926 32.8213 156.465 30.464C154.033 28.1067 152.818 25.0996 152.818 21.4427C152.818 17.7858 154.033 14.7787 156.465 12.4213ZM170.643 16.2293C169.366 14.9298 167.74 14.28 165.765 14.28C163.789 14.28 162.163 14.9298 160.887 16.2293C159.61 17.5289 158.972 19.2667 158.972 21.4427C158.972 23.6187 159.61 25.3564 160.887 26.656C162.163 27.9556 163.789 28.6053 165.765 28.6053C167.74 28.6053 169.366 27.9556 170.643 26.656C171.919 25.3564 172.557 23.6187 172.557 21.4427C172.557 19.2667 171.919 17.5289 170.643 16.2293ZM192.831 8.88533C195.414 8.88533 197.724 9.52 199.76 10.7893C201.797 12.0587 203.21 13.6604 204 15.5947L198.757 18.632C198.515 17.3492 197.779 16.2109 196.706 15.4587C195.612 14.6729 194.32 14.28 192.831 14.28C190.855 14.28 189.26 14.9147 188.044 16.184C186.828 17.4533 186.221 19.2062 186.221 21.4427C186.221 23.6791 186.813 25.432 187.999 26.7013C189.214 27.9707 190.825 28.6053 192.831 28.6053C194.229 28.6053 195.475 28.2124 196.569 27.4267C197.694 26.6107 198.423 25.5982 198.757 24.3893L203.863 27.336C203.043 29.2702 201.629 30.872 199.624 32.1413C197.648 33.3804 195.384 34 192.831 34C189.032 34 185.947 32.8364 183.576 30.5093C181.236 28.1822 180.066 25.16 180.066 21.4427C180.066 17.7556 181.251 14.7484 183.622 12.4213C186.023 10.064 189.093 8.88533 192.831 8.88533Z" fill="white"/>
</svg>
